<svg width="260" height="260" viewBox="0 0 260 260" fill="none" xmlns="http://www.w3.org/2000/svg">
<rect x="19" width="7.92683" height="19.8171" fill="white"/>
<rect x="32.8719" y="176.372" width="7.92683" height="19.8171" fill="white"/>
<rect x="200.524" y="209.665" width="7.92683" height="19.8171" fill="white"/>
<rect x="39.2134" y="79.6646" width="19.8171" height="19.8171" fill="white"/>
<rect x="198.146" y="76.8901" width="19.8171" height="19.8171" fill="white"/>
<rect x="108.177" y="162.104" width="23.7805" height="19.8171" fill="white"/>
<rect x="42.7805" width="7.92683" height="19.8171" fill="white"/>
<rect x="233.024" width="7.92683" height="19.8171" fill="white"/>
<rect x="209.244" width="7.92683" height="19.8171" fill="white"/>
<rect x="185.463" width="7.92683" height="19.8171" fill="white"/>
<rect x="161.683" width="7.92683" height="19.8171" fill="white"/>
<rect x="137.902" width="7.92683" height="19.8171" fill="white"/>
<rect x="114.122" width="7.92683" height="19.8171" fill="white"/>
<rect x="90.3414" width="7.92683" height="19.8171" fill="white"/>
<rect x="66.561" width="7.92683" height="19.8171" fill="white"/>
<line x1="24.1707" y1="19.8171" x2="24.1707" y2="142.683" stroke="white" stroke-width="4"/>
<line x1="23.5849" y1="141.269" x2="37.878" y2="155.562" stroke="white" stroke-width="4"/>
<line x1="38.0427" y1="156.158" x2="38.0427" y2="176.372" stroke="white" stroke-width="4"/>
<line x1="47.9512" y1="19.8171" x2="47.9512" y2="55.4879" stroke="white" stroke-width="4"/>
<line x1="47.3654" y1="54.0736" x2="55.7731" y2="62.4813" stroke="white" stroke-width="4"/>
<line x1="55.8781" y1="63.0183" x2="55.8781" y2="126.433" stroke="white" stroke-width="4"/>
<circle cx="54.6707" cy="130" r="3.96341" fill="white"/>
<circle cx="87.9634" cy="240.579" r="3.96341" fill="white"/>
<circle cx="100.646" cy="239.787" r="3.96341" fill="white"/>
<circle cx="128.787" cy="239.787" r="3.96341" fill="white"/>
<circle cx="139.091" cy="256.037" r="3.96341" fill="white"/>
<circle cx="167.232" cy="252.866" r="3.96341" fill="white"/>
<circle cx="182.293" cy="252.073" r="3.96341" fill="white"/>
<circle cx="43.1769" cy="121.677" r="3.96341" fill="white"/>
<line x1="36.4573" y1="27.3477" x2="36.4573" y2="55.0916" stroke="white" stroke-width="4"/>
<line x1="35.8715" y1="53.6773" x2="44.2792" y2="62.085" stroke="white" stroke-width="4"/>
<circle cx="35.25" cy="23.7806" r="3.96341" fill="white"/>
<circle cx="101.043" cy="38.0489" r="3.96341" fill="white"/>
<circle cx="154.152" cy="24.1768" r="3.96341" fill="white"/>
<circle cx="154.152" cy="82.8355" r="3.96341" fill="white"/>
<circle cx="152.171" cy="100.274" r="3.96341" fill="white"/>
<circle cx="178.726" cy="124.451" r="3.96341" fill="white"/>
<circle cx="164.457" cy="117.713" r="3.96341" fill="white"/>
<circle cx="170.799" cy="137.531" r="3.96341" fill="white"/>
<circle cx="170.799" cy="159.329" r="3.96341" fill="white"/>
<circle cx="170.799" cy="206.097" r="3.96341" fill="white"/>
<circle cx="191.012" cy="116.128" r="3.96341" fill="white"/>
<circle cx="201.317" cy="24.1768" r="3.96341" fill="white"/>
<circle cx="225.098" cy="23.7806" r="3.96341" fill="white"/>
<circle cx="201.317" cy="43.2012" r="3.96341" fill="white"/>
<circle cx="109.762" cy="128.415" r="3.96341" fill="white"/>
<circle cx="103.024" cy="62.6219" r="3.96341" fill="white"/>
<circle cx="119.274" cy="113.75" r="3.96341" fill="white"/>
<line x1="41.9695" y1="118.11" x2="41.9695" y2="62.6221" stroke="white" stroke-width="4"/>
<line x1="71.7317" y1="19.8171" x2="71.7317" y2="35.6708" stroke="white" stroke-width="4"/>
<line x1="71.5986" y1="35.8959" x2="65.9935" y2="41.501" stroke="white" stroke-width="4"/>
<line x1="66.5793" y1="40.0305" x2="66.5793" y2="139.116" stroke="white" stroke-width="4"/>
<line x1="65.9935" y1="137.702" x2="105.229" y2="176.938" stroke="white" stroke-width="4"/>
<line x1="105.421" y1="177.165" x2="105.421" y2="224.726" stroke="white" stroke-width="4"/>
<line x1="105.372" y1="224.951" x2="91.3593" y2="238.964" stroke="white" stroke-width="4"/>
<line x1="95.5122" y1="19.8171" x2="95.5122" y2="31.7074" stroke="white" stroke-width="4"/>
<line x1="95.4073" y1="31.9325" x2="86.9996" y2="40.3402" stroke="white" stroke-width="4"/>
<line x1="87.5854" y1="38.8416" x2="87.5854" y2="137.927" stroke="white" stroke-width="4"/>
<line x1="86.9996" y1="136.513" x2="112.223" y2="161.736" stroke="white" stroke-width="4"/>
<line x1="112.555" y1="162.104" x2="112.555" y2="229.482" stroke="white" stroke-width="4"/>
<line x1="112.478" y1="229.707" x2="104.07" y2="238.115" stroke="white" stroke-width="4"/>
<line x1="102.25" y1="41.616" x2="102.25" y2="49.5428" stroke="white" stroke-width="4"/>
<line x1="102.145" y1="49.768" x2="93.7374" y2="58.1756" stroke="white" stroke-width="4"/>
<line x1="94.7139" y1="56.6741" x2="94.7139" y2="112.162" stroke="white" stroke-width="4"/>
<line x1="94.1337" y1="110.75" x2="108.146" y2="124.763" stroke="white" stroke-width="4"/>
<line x1="104.232" y1="66.189" x2="104.232" y2="97.8963" stroke="white" stroke-width="4"/>
<line x1="103.646" y1="96.482" x2="117.659" y2="110.495" stroke="white" stroke-width="4"/>
<line x1="119.293" y1="19.8171" x2="119.293" y2="51.5245" stroke="white" stroke-width="4"/>
<line x1="118.707" y1="50.1102" x2="135.522" y2="66.9255" stroke="white" stroke-width="4"/>
<line x1="135.543" y1="67.3779" x2="135.543" y2="122.866" stroke="white" stroke-width="4"/>
<line x1="135.55" y1="123.091" x2="118.735" y2="139.906" stroke="white" stroke-width="4"/>
<line x1="119.293" y1="138.323" x2="119.293" y2="229.482" stroke="white" stroke-width="4"/>
<line x1="118.707" y1="228.067" x2="127.115" y2="236.475" stroke="white" stroke-width="4"/>
<line x1="143.073" y1="19.8171" x2="143.073" y2="126.829" stroke="white" stroke-width="4"/>
<line x1="143.025" y1="127.054" x2="129.012" y2="141.067" stroke="white" stroke-width="4"/>
<line x1="129.598" y1="139.512" x2="129.598" y2="222.744" stroke="white" stroke-width="4"/>
<line x1="129.012" y1="221.33" x2="140.222" y2="232.54" stroke="white" stroke-width="4"/>
<line x1="140.299" y1="232.652" x2="140.299" y2="252.469" stroke="white" stroke-width="4"/>
<line x1="155.36" y1="27.7439" x2="155.36" y2="79.2683" stroke="white" stroke-width="4"/>
<line x1="166.854" y1="19.8171" x2="166.854" y2="87.1952" stroke="white" stroke-width="4"/>
<line x1="166.664" y1="87.4203" x2="155.454" y2="98.6305" stroke="white" stroke-width="4"/>
<line x1="190.634" y1="19.8171" x2="190.634" y2="43.5976" stroke="white" stroke-width="4"/>
<line x1="190.557" y1="43.8227" x2="179.347" y2="55.0329" stroke="white" stroke-width="4"/>
<line x1="179.933" y1="53.5061" x2="179.933" y2="120.884" stroke="white" stroke-width="4"/>
<line x1="214.415" y1="19.8171" x2="214.415" y2="43.5976" stroke="white" stroke-width="4"/>
<line x1="202.524" y1="27.7439" x2="202.524" y2="39.6341" stroke="white" stroke-width="4"/>
<line x1="214.127" y1="44.119" x2="202.917" y2="55.3293" stroke="white" stroke-width="4"/>
<line x1="203.317" y1="53.9023" x2="203.317" y2="105.427" stroke="white" stroke-width="4"/>
<line x1="238.195" y1="19.8171" x2="238.195" y2="39.6342" stroke="white" stroke-width="4"/>
<line x1="226.305" y1="27.3477" x2="226.305" y2="43.2013" stroke="white" stroke-width="4"/>
<line x1="226.228" y1="43.4264" x2="215.018" y2="54.6367" stroke="white" stroke-width="4"/>
<line x1="215.604" y1="53.1099" x2="215.604" y2="76.8904" stroke="white" stroke-width="4"/>
<line x1="203" y1="106.048" x2="194.592" y2="114.456" stroke="white" stroke-width="4"/>
<line x1="238.09" y1="39.8593" x2="229.682" y2="48.267" stroke="white" stroke-width="4"/>
<line x1="230.268" y1="46.7683" x2="230.268" y2="106.22" stroke="white" stroke-width="4"/>
<line x1="230.188" y1="106.445" x2="204.965" y2="131.668" stroke="white" stroke-width="4"/>
<line x1="205.695" y1="130.396" x2="205.695" y2="209.665" stroke="white" stroke-width="4"/>
<line x1="162.898" y1="121.109" x2="146.083" y2="137.925" stroke="white" stroke-width="4"/>
<line x1="146.64" y1="136.342" x2="146.64" y2="231.464" stroke="white" stroke-width="4"/>
<line x1="146.054" y1="230.049" x2="165.672" y2="249.667" stroke="white" stroke-width="4"/>
<line x1="169.183" y1="140.926" x2="155.17" y2="154.939" stroke="white" stroke-width="4"/>
<line x1="155.756" y1="153.384" x2="155.756" y2="224.725" stroke="white" stroke-width="4"/>
<line x1="155.17" y1="223.311" x2="180.393" y2="248.534" stroke="white" stroke-width="4"/>
<line x1="172.006" y1="162.896" x2="172.006" y2="202.53" stroke="white" stroke-width="4"/>
</svg>
